<?xml version="1.0" encoding="UTF-8"?>
<svg viewBox="0 0 256 256" version="1.1" xmlns="http://www.w3.org/2000/svg" xmlns:xlink="http://www.w3.org/1999/xlink">
    <!-- Generator: Sketch 46.1 (44463) - http://www.bohemiancoding.com/sketch -->
    <title>Artboard</title>
    <desc>Created with Sketch.</desc>
    <defs>
        <polygon id="path-1" points="137.590569 3.12638804e-14 0.268170796 3.12638804e-14 0.268170796 160.5483 137.590569 160.5483 137.590569 0"></polygon>
        <polygon id="path-3" points="2.239765e-20 0.09251 2.239765e-20 171.52201 104.746367 171.52201 104.746367 0.09251 0 0.09251"></polygon>
    </defs>
    <g id="map" stroke="none" stroke-width="1" fill="none" fill-rule="evenodd">
        <g id="Artboard">
            <g id="Page-1" transform="translate(4.000000, 18.000000)">
                <path d="M70.3634336,194.61376 L198.337314,160.54786 L223.528181,153.82796 L246.415248,193.38506 C248.858973,197.63766 249.452827,202.12676 248.195708,206.84906 C246.922062,211.59006 244.154416,215.18156 239.894973,217.62136 C237.154872,219.20646 234.20323,219.99956 231.044456,219.99956 L63.5291549,219.89616 L63.6856062,219.31976 C63.7032345,219.25046 63.7208628,219.18116 63.7384912,219.11186 L70.3634336,194.61376 Z" id="Fill-1" fill="#00539A"></path>
                <g id="Group-5" transform="translate(85.938053, 0.000000)">
                    <mask id="mask-2" fill="white">
                        <use xlink:href="#path-1"></use>
                    </mask>
                    <g id="Clip-4"></g>
                    <path d="M137.590569,153.8284 L112.3986,160.5483 L18.8087549,67.0549 L0.268170796,48.4924 L23.1552372,8.9364 C25.6165912,4.7003 29.2127681,1.9382 33.9437681,0.6479 C38.6747681,-0.6248 43.162277,-0.0231 47.4040912,2.4519 C50.1618212,4.0381 52.3267991,6.1908 53.897923,8.91 L137.590569,153.8284 Z" id="Fill-3" fill="#0796D3" mask="url(#mask-2)"></path>
                </g>
                <g id="Group-8" transform="translate(0.000000, 48.400000)">
                    <mask id="mask-4" fill="white">
                        <use xlink:href="#path-3"></use>
                    </mask>
                    <g id="Clip-7"></g>
                    <path d="M104.746367,18.65501 L70.3634336,146.21431 L63.7384912,170.71131 C63.7208628,170.78061 63.7032345,170.85101 63.6856062,170.92031 L63.5291549,171.49561 L17.7550221,171.52201 C12.8488407,171.50441 8.65880973,169.76971 5.1849292,166.31901 C1.71104867,162.85071 -0.0176283186,158.65861 -2.71050543e-20,153.74381 C-2.71050543e-20,150.58901 0.785561947,147.65201 2.35668584,144.93281 L86.206885,0.09251 L104.746367,18.65501 Z" id="Fill-6" fill="#007FC3" mask="url(#mask-4)"></path>
                </g>
            </g>
        </g>
    </g>
</svg>