<?xml version="1.0" encoding="UTF-8"?>
<svg width="136px" height="78px" viewBox="0 0 136 78" version="1.1" xmlns="http://www.w3.org/2000/svg" xmlns:xlink="http://www.w3.org/1999/xlink">
    <!-- Generator: Sketch 46.1 (44463) - http://www.bohemiancoding.com/sketch -->
    <title>Group 6</title>
    <desc>Created with Sketch.</desc>
    <defs>
        <polygon id="path-1" points="17.6603895 0.0536290474 17.6603895 18.2186616 0.0334006803 18.2186616 0.0334006803 0.0536290474"></polygon>
    </defs>
    <g id="map" stroke="none" stroke-width="1" fill="none" fill-rule="evenodd">
        <g id="user-info" transform="translate(-117.000000, -122.000000)">
            <g id="Group-3" transform="translate(117.000000, 122.000000)">
                <g id="Group">
                    <g id="Group-4">
                        <g id="Page-1">
                            <g id="Group-6">
                                <path d="M135.6385,67.8192 C135.6385,30.3642 105.2745,0.0002 67.8195,0.0002 C30.3635,0.0002 0.0005,30.3642 0.0005,67.8192 L0.0005,77.5072 L135.6385,77.5072 L135.6385,67.8192 Z" id="Fill-28" fill="#333333"></path>
                                <path d="M67.8193,0 C30.3633,0 0.0003,30.364 0.0003,67.819 L0.0003,77.508 L6.7823,77.508 L6.7823,67.819 C6.7823,34.163 34.1633,6.782 67.8193,6.782 C101.4753,6.782 128.8563,34.163 128.8563,67.819 L128.8563,77.508 L135.6383,77.508 L135.6383,67.819 C135.6383,30.364 105.2743,0 67.8193,0" id="Fill-30" fill="#FFD34E"></path>
                                <g id="Page-1" transform="translate(52.000000, 29.000000)">
                                    <path d="M15.7943939,3.55051587 L15.7943939,3.55051587 L2.96722381,16.5598443 C4.82666259,14.7061542 7.22247551,13.7150731 9.65648401,13.5821469 L16.8784058,6.1599845 C17.8441184,5.1973203 17.1601218,3.55051587 15.7943939,3.55051587" id="Fill-1" fill="#FFFFFF"></path>
                                    <path d="M14.8781719,14.6822539 L26.9868624,2.61024649 C27.9532672,1.64682952 27.2685784,2.50922509e-05 25.9020954,2.50922509e-05 L12.1175189,13.74349 C13.0689474,13.9212059 13.9986668,14.2349218 14.8781719,14.6822539" id="Fill-3" fill="#FFFFFF"></path>
                                    <path d="M17.4680209,31.0157723 L30.7214461,17.8033221 C30.7214461,16.4410638 29.0695345,15.7591819 28.1038849,16.7219089 L20.4549529,24.347193 C20.3223066,26.7744292 19.3274597,29.1620823 17.4680209,31.0157723" id="Fill-9" fill="#FFFFFF"></path>
                                    <path d="M26.4287476,6.00390443 L16.481348,15.6979819 C16.8237238,15.961576 17.1541439,16.2468749 17.4680146,16.559838 C17.7819483,16.8727384 18.068069,17.2021369 18.3325435,17.5433915 L28.2799432,7.84937675 C28.2799432,6.82994133 27.4513446,6.00390443 26.4287476,6.00390443" id="Fill-11" fill="#FFFFFF"></path>
                                    <g id="Group-15" transform="translate(19.318027, 3.675137)">
                                        <mask id="mask-2" fill="white">
                                            <use xlink:href="#path-1"></use>
                                        </mask>
                                        <g id="Clip-14"></g>
                                        <path d="M0.975830952,18.2186616 L17.6604398,1.58563579 C17.6604398,0.223440221 16.0085282,-0.458441697 15.0421235,0.504222509 L0.0334006803,15.4665435 C0.48287517,16.3433295 0.79750102,17.2709273 0.975830952,18.2186616" id="Fill-13" fill="#FFFFFF" mask="url(#mask-2)"></path>
                                    </g>
                                    <g id="Group-18" transform="translate(0.000000, 13.523845)" fill="#FFFFFF">
                                        <path d="M10.2535935,0.00602841328 C7.62929932,0.00602841328 5.00494218,1.00382177 3.00322959,3.00016125 C-1.00107653,6.99202472 -1.00107653,13.4641945 3.00322959,17.4560579 C5.00569728,19.4523974 7.62929932,20.4501908 10.2535935,20.4501908 C12.8778878,20.4501908 15.5022449,19.4523974 17.5039575,17.4560579 C21.5082636,13.4641945 21.5082636,6.99202472 17.5039575,3.00016125 C15.5022449,1.00382177 12.8778878,0.00602841328 10.2535935,0.00602841328 M10.2535935,2.4519583 C12.336983,2.4519583 14.2960952,3.26080701 15.7696769,4.72983284 C17.2432585,6.19885867 18.0546156,8.15109852 18.0546156,10.2288624 C18.0546156,12.3058107 17.2432585,14.2588033 15.7696769,15.7278919 C14.2960952,17.1969177 12.3377381,18.0057664 10.2535935,18.0057664 C8.17020408,18.0057664 6.21109184,17.1969177 4.7375102,15.7278919 C3.26392857,14.2588033 2.45257143,12.3065635 2.45257143,10.2288624 C2.45257143,8.15185129 3.26392857,6.19885867 4.7375102,4.72983284 C6.21109184,3.26080701 8.17020408,2.4519583 10.2535935,2.4519583" id="Fill-16"></path>
                                    </g>
                                </g>
                            </g>
                        </g>
                    </g>
                </g>
            </g>
        </g>
    </g>
</svg>