<?xml version="1.0" encoding="UTF-8"?>
<svg viewBox="0 0 85 85" version="1.1" xmlns="http://www.w3.org/2000/svg" xmlns:xlink="http://www.w3.org/1999/xlink">
    <!-- Generator: Sketch 46.1 (44463) - http://www.bohemiancoding.com/sketch -->
    <title>flaticon1503907316-svg</title>
    <desc>Created with Sketch.</desc>
    <defs></defs>
    <g id="map" stroke="none" stroke-width="1" fill="none" fill-rule="evenodd">
        <g id="finding" transform="translate(-140.000000, -202.000000)" fill-rule="nonzero">
            <g id="flaticon1503907316-svg" transform="translate(187.417785, 249.417785) rotate(45.000000) translate(-187.417785, -249.417785) translate(136.917785, 198.917785)">
                <path d="M40.1724837,1.48786977 C21.8632499,9.15783476 8.92721861,27.9164741 8.92721861,49.8436372 C8.92721861,71.7708004 21.8634596,90.5294397 40.1724837,98.1994047 C29.6764534,88.4255213 22.382872,74.957029 20.1523554,59.7387141 C19.9976012,58.6835933 20.8097465,57.7351228 21.8707989,57.7351228 L32.0082522,57.7351228 L32.0082522,41.9521517 L21.8707989,41.9521517 C20.8097465,41.9521517 19.9976012,41.0038919 20.1523554,39.9485604 C22.3826623,24.7302454 29.6764534,11.2619639 40.1724837,1.48786977 Z" id="Shape" fill="#E0E0E2"></path>
                <g id="Group" transform="translate(8.927219, 47.611833)" fill="#C6C5CA">
                    <path d="M23.0113046,11.2550695 L23.0113046,4.90440584 L12.9411639,4.90440584 C11.887157,4.90440584 11.0804042,5.8567937 11.2341309,6.91671946 C11.4582636,8.46352944 11.7367631,9.99149911 12.0619221,11.5002051 C12.3181333,11.3452489 12.6176713,11.2550695 12.9411639,11.2550695 L23.0113046,11.2550695 Z" id="Shape"></path>
                    <path d="M21.0805555,39.7754765 C9.14798872,30.8862409 1.10024994,16.5379749 0.173931976,0.153897749 C0.114565972,1.20429752 0.0835290088,2.26295314 0.0835290088,3.32922957 C0.0835290088,25.3518493 12.9338733,44.1921514 31.1213256,51.8952947 C27.3210681,48.3173308 23.9459546,44.2446502 21.0805555,39.7754765 Z" id="Shape"></path>
                </g>
                <path d="M8.76268177,49.8435404 C8.76268177,48.5917986 8.81838192,47.3514873 8.92721861,46.1239628 L5.96252588,46.1239628 C3.4912106,46.1239628 1.48786977,47.7893354 1.48786977,49.8435404 L1.48786977,49.8435404 C1.48786977,51.897939 3.4912106,53.5633116 5.96252588,53.5633116 L8.92721861,53.5633116 C8.81838192,52.3355934 8.76268177,51.0952821 8.76268177,49.8435404 Z" id="Shape" fill="#957856"></path>
                <path d="M31.2452651,46.1241843 L31.2452651,56.5390512 L93.2414554,56.5390512 C95.9796823,56.5390512 98.1994047,54.2075827 98.1994047,51.331507 L98.1994047,51.331507 C98.1994047,48.4554313 95.9796823,46.1239628 93.2414554,46.1239628 L31.2452651,46.1239628 L31.2452651,46.1241843 Z" id="Shape" fill="#957856"></path>
                <path d="M93.2416662,49.3757252 L31.2452651,49.3757252 L31.2452651,55.0511814 L93.2414554,55.0511814 C95.9796823,55.0511814 98.1994047,52.9909908 98.1994047,50.4495607 L98.1994047,50.4495607 C98.1994047,49.3784651 97.8040423,48.3936756 97.1429965,47.6118326 C96.2352445,48.6852766 94.8258568,49.3757252 93.2416662,49.3757252 Z" id="Shape" fill="#806749"></path>
                <g id="Group" fill="#000000">
                    <path d="M5.76377579,56.1326321 L7.00625684,56.1326321 C7.9012338,65.0836753 10.9124407,73.6152512 15.8513718,81.0792656 C21.6916484,89.9054876 29.811399,96.6683377 39.3326292,100.636508 C39.5317489,100.719509 39.7393597,100.759206 39.9444232,100.759206 C40.4730031,100.759206 40.9841759,100.495128 41.2845536,100.027473 C41.7016859,99.3783177 41.5932102,98.5234619 41.0270567,97.9989154 C30.4187352,88.170939 23.3962653,74.746497 21.253288,60.1986635 C21.2458582,60.1472915 21.2590196,60.1014388 21.2927723,60.0623791 C21.3422338,60.0048509 21.3993374,60.0048509 21.4180181,60.0048509 L31.6807461,60.0048509 C32.5602265,60.0048509 33.272854,59.2920111 33.272854,58.4127429 L33.272854,57.0482003 L94.0947747,57.0482003 C97.7249932,57.0482003 100.678247,54.0947339 100.678247,50.4647277 C100.678247,46.8347216 97.7249932,43.8812551 94.0947747,43.8812551 L62.4504614,43.8812551 C61.570981,43.8812551 60.8583535,44.5940949 60.8583535,45.4733631 C60.8583535,46.3526313 61.570981,47.0654711 62.4504614,47.0654711 L94.0941379,47.0654711 C95.9683674,47.0654711 97.4933945,48.5904982 97.4933945,50.4647277 C97.4933945,52.3391695 95.9683674,53.8639844 94.0941379,53.8639844 L33.2724295,53.8639844 L33.2724295,47.0654711 L55.985654,47.0654711 C56.8651344,47.0654711 57.5777619,46.3526313 57.5777619,45.4733631 C57.5777619,44.5940949 56.8651344,43.8812551 55.985654,43.8812551 L33.2724295,43.8812551 L33.2724295,42.5167125 C33.2724295,41.6374443 32.5598019,40.9246045 31.6803215,40.9246045 L21.4175936,40.9246045 C21.3989128,40.9246045 21.3420215,40.9246045 21.2923477,40.8672886 C21.2588073,40.8282289 21.2454336,40.7823762 21.2528635,40.7310042 C23.3960531,26.1831707 30.4185229,12.7587287 41.0266321,2.93075234 C41.5927857,2.40620584 41.7012613,1.55156228 41.284129,0.902194513 C40.867209,0.252826745 40.0444076,-0.00382105911 39.3324169,0.293160146 C27.7059955,5.13868766 18.1482529,14.2066978 12.4198485,25.8269631 C12.0309496,26.6155873 12.3551028,27.5702152 13.1437269,27.9591141 C13.9327756,28.348013 14.886979,28.0236475 15.2756656,27.2350234 C19.2234565,19.2275695 25.0981226,12.5112089 32.2498716,7.70325517 C24.8066607,16.9909762 19.8707015,28.2660725 18.1026125,40.2669578 C17.9603842,41.2326243 18.2446285,42.2097541 18.8823208,42.9482799 C19.519164,43.6857443 20.4432235,44.1088204 21.4173813,44.1088204 L30.0880013,44.1088204 L30.0880013,45.4733631 L30.0880013,55.4560923 L30.0880013,56.820635 L21.4173813,56.820635 C20.4430112,56.820635 19.519164,57.2437111 18.8823208,57.9811755 C18.2446285,58.7197014 17.9603842,59.6970434 18.1026125,60.6627099 C19.871126,72.667204 24.8096327,83.9459091 32.2568769,93.2351161 C26.8727923,89.6193327 22.2051563,84.9113633 18.5067956,79.322003 C13.5975838,71.9025676 10.7082263,63.3597408 10.0512164,54.4106081 C10.0287146,54.1053479 10.0091847,53.7986018 9.99198998,53.4914311 C9.99092857,53.471689 9.9894426,53.4521591 9.98816892,53.432417 C9.95229342,52.7794404 9.92809338,52.1232796 9.91578107,51.4688171 C9.91556879,51.4639347 9.91556879,51.4588399 9.91535651,51.4539575 C9.90920036,51.1236481 9.90622843,50.7937634 9.90622843,50.4647277 C9.90622843,50.1095815 9.91047405,49.7548598 9.91747932,49.4005627 C9.92045126,49.2523906 9.925546,49.1042184 9.92979162,48.9560462 C9.93552321,48.7528932 9.9412548,48.5499525 9.9491092,48.3472241 C9.95611448,48.1676343 9.96503028,47.9884691 9.97394609,47.8090916 C9.98243733,47.6377808 9.99114085,47.46647 10.0011181,47.2953715 C10.012369,47.1038939 10.0246813,46.9130533 10.038055,46.7222126 C10.3740959,41.884964 11.3612028,37.1570402 12.9891863,32.6231413 C13.2863798,31.7956697 12.8565106,30.8839226 12.029039,30.5867291 C11.2013552,30.2895356 10.289608,30.7194047 9.99241454,31.5470886 C8.45677334,35.8234906 7.45968919,40.2614385 7.00625684,44.7970356 L5.7635635,44.7970356 C2.63836171,44.7970356 0.0958714346,47.3397382 0.0958714346,50.46494 C0.0958714346,53.5901418 2.63857399,56.1326321 5.76377579,56.1326321 Z M5.76377579,47.9812516 L6.77635645,47.9812516 C6.74069323,48.8066003 6.72222478,49.6344965 6.72222478,50.4647277 C6.72222478,50.8521406 6.72710724,51.2389167 6.73496164,51.6254806 C6.73708445,51.7254649 6.74048095,51.825237 6.74302832,51.9252214 C6.75045816,52.2192307 6.75979853,52.5128154 6.77189855,52.8061878 C6.77380908,52.8535265 6.77444592,52.9010775 6.77656873,52.9484161 L5.76377579,52.9484161 C4.39435066,52.9484161 3.28029964,51.8343651 3.28029964,50.4647277 C3.28029964,49.0953026 4.39435066,47.9812516 5.76377579,47.9812516 Z" id="Shape"></path>
                </g>
            </g>
        </g>
    </g>
</svg>