<?xml version="1.0" encoding="UTF-8"?>
<svg width="58px" height="58px" viewBox="0 0 58 58" version="1.1" xmlns="http://www.w3.org/2000/svg" xmlns:xlink="http://www.w3.org/1999/xlink">
    <!-- Generator: Sketch 46.1 (44463) - http://www.bohemiancoding.com/sketch -->
    <title>kolang</title>
    <desc>Created with Sketch.</desc>
    <defs></defs>
    <g id="map" stroke="none" stroke-width="1" fill="none" fill-rule="evenodd">
        <g id="message" transform="translate(-155.000000, -575.000000)" fill-rule="nonzero">
            <g id="kolang" transform="translate(187.083261, 607.083261) rotate(45.000000) translate(-187.083261, -607.083261) translate(153.083261, 573.083261)">
                <path d="M27,1 C14.6943304,6.15499754 6,18.7627134 6,33.5 C6,48.2372866 14.6944713,60.8450025 27,66 C19.9455988,59.430955 15.0435693,50.3787567 13.544435,40.1504993 C13.4404244,39.4413507 13.9862688,38.8038819 14.699404,38.8038819 L21.512805,38.8038819 L21.512805,28.1961181 L14.699404,28.1961181 C13.9862688,28.1961181 13.4404244,27.558791 13.544435,26.8495007 C15.0434284,16.6212433 19.9455988,7.56918661 27,1 Z" id="Shape" fill="#E0E0E2"></path>
                <g id="Group" transform="translate(6.000000, 32.000000)" fill="#C6C5CA">
                    <path d="M15.46594,7.56455285 L15.46594,3.29626016 L8.69778,3.29626016 C7.98938,3.29626016 7.44716,3.93636179 7.55048,4.64873984 C7.70112,5.68835366 7.8883,6.71530488 8.10684,7.72930894 C8.27904,7.6251626 8.48036,7.56455285 8.69778,7.56455285 L15.46594,7.56455285 Z" id="Shape"></path>
                    <path d="M14.16828,26.7331707 C6.14838,20.7586992 0.73948,11.1152033 0.1169,0.103434959 C0.077,0.809410569 0.05614,1.52093496 0.05614,2.2375813 C0.05614,17.0390244 8.69288,29.701626 20.9167,34.8789228 C18.36254,32.4741667 16.09412,29.7369106 14.16828,26.7331707 Z" id="Shape"></path>
                </g>
                <path d="M5.88941449,33.4999349 C5.88941449,32.6586369 5.92685066,31.8250215 6,31 L4.00742458,31 C2.34644905,31 1,32.1193 1,33.4999349 L1,33.4999349 C1,34.8807 2.34644905,36 4.00742458,36 L6,36 C5.92685066,35.1748483 5.88941449,34.3412328 5.88941449,33.4999349 Z" id="Shape" fill="#957856"></path>
                <path d="M21,31.0001489 L21,38 L62.6677532,38 C64.5081205,38 66,36.4330158 66,34.5 L66,34.5 C66,32.5669842 64.5081205,31 62.6677532,31 L21,31 L21,31.0001489 Z" id="Shape" fill="#957856"></path>
                <path d="M62.6678949,33.1855155 L21,33.1855155 L21,37 L62.6677532,37 C64.5081205,37 66,35.6153421 66,33.9072423 L66,33.9072423 C66,33.187357 65.7342762,32.5254781 65.2899861,32 C64.6798844,32.7214637 63.7326323,33.1855155 62.6678949,33.1855155 Z" id="Shape" fill="#806749"></path>
                <g id="Group" fill="#000000">
                    <path d="M3.87384428,37.726845 L4.70891807,37.726845 C5.31043373,43.7428576 7.33427138,49.4769453 10.6537361,54.4935231 C14.5789967,60.4256431 20.036296,64.9709671 26.4355322,67.6379813 C26.5693609,67.693767 26.7088966,67.7204472 26.8467201,67.7204472 C27.2019796,67.7204472 27.5455398,67.5429601 27.7474242,67.2286482 C28.0277796,66.7923496 27.9548729,66.2177994 27.57436,65.8652508 C20.4444877,59.2598499 15.7246729,50.2372577 14.2843739,40.4596322 C14.2793803,40.4251049 14.2882261,40.3942873 14.3109113,40.3680351 C14.3441545,40.3293704 14.3825339,40.3293704 14.3950893,40.3293704 L21.2926875,40.3293704 C21.883788,40.3293704 22.3627462,39.8502694 22.3627462,39.2593117 L22.3627462,38.3422 L63.2412707,38.3422 C65.6811472,38.3422 67.6660347,36.3571699 67.6660347,33.9174361 C67.6660347,31.4777023 65.6811472,29.4926721 63.2412707,29.4926721 L41.9730697,29.4926721 C41.3819692,29.4926721 40.903011,29.971773 40.903011,30.5627307 C40.903011,31.1536885 41.3819692,31.6327894 41.9730697,31.6327894 L63.2408427,31.6327894 C64.5005158,31.6327894 65.5254893,32.657763 65.5254893,33.9174361 C65.5254893,35.1772518 64.5005158,36.2020827 63.2408427,36.2020827 L22.3624609,36.2020827 L22.3624609,31.6327894 L37.6280607,31.6327894 C38.2191611,31.6327894 38.6981194,31.1536885 38.6981194,30.5627307 C38.6981194,29.971773 38.2191611,29.4926721 37.6280607,29.4926721 L22.3624609,29.4926721 L22.3624609,28.5755604 C22.3624609,27.9846027 21.8835026,27.5055018 21.2924022,27.5055018 L14.3948039,27.5055018 C14.3822486,27.5055018 14.3440118,27.5055018 14.310626,27.4669796 C14.2880834,27.4407275 14.2790949,27.4099098 14.2840885,27.3753826 C15.7245302,17.5977571 20.444345,8.57516493 27.5740747,1.96976402 C27.9545875,1.61721536 28.0274942,1.04280785 27.7471388,0.606366587 C27.4669261,0.169925319 26.9139198,-0.00256814084 26.4353896,0.197033472 C18.6212504,3.4537214 12.1974741,9.54834764 8.34740294,17.3583493 C8.08602328,17.888385 8.30388722,18.5299922 8.83392296,18.7913719 C9.36424404,19.0527515 10.0055659,18.8347449 10.2668029,18.3047092 C12.9201204,12.9228847 16.8684942,8.40880648 21.6751978,5.17737193 C16.6726022,11.4196663 13.3551349,18.9976792 12.1667991,27.0634962 C12.0712072,27.7125224 12.2622483,28.3692531 12.6908425,28.8656177 C13.1188659,29.3612689 13.739928,29.6456191 14.3946612,29.6456191 L20.2222008,29.6456191 L20.2222008,30.5627307 L20.2222008,37.2721414 L20.2222008,38.189253 L14.3946612,38.189253 C13.7397853,38.189253 13.1188659,38.4736033 12.6908425,38.9692544 C12.2622483,39.465619 12.0712072,40.1224923 12.1667991,40.7715186 C13.3554203,48.8397611 16.6745996,56.4201995 21.6799061,62.6634925 C18.061253,60.2333179 14.9241263,57.069083 12.4384513,53.3124637 C9.13896102,48.3258476 7.19701852,42.584198 6.75544097,36.5694695 C6.74031748,36.3643036 6.72719142,36.1581389 6.71563479,35.9516889 C6.71492142,35.9384202 6.7139227,35.9252942 6.71306665,35.9120254 C6.68895466,35.4731587 6.67268977,35.0321519 6.66441465,34.5922864 C6.66427197,34.5890049 6.66427197,34.5855807 6.6641293,34.5822992 C6.65999174,34.3602977 6.6579943,34.1385815 6.6579943,33.9174361 C6.6579943,33.6787416 6.66084779,33.4403326 6.66555604,33.2022088 C6.66755349,33.102622 6.67097767,33.0030352 6.67383116,32.9034484 C6.67768338,32.766909 6.68153559,32.6305121 6.68681454,32.494258 C6.6915228,32.3735554 6.69751513,32.2531381 6.70350746,32.1325782 C6.70921444,32.0174399 6.71506409,31.9023015 6.72176979,31.7873059 C6.72933154,31.6586135 6.73760666,31.5303491 6.74659515,31.4020848 C6.97244887,28.1509612 7.63588526,24.9733149 8.73005593,21.9260731 C8.92980022,21.3699279 8.64088437,20.757141 8.08473921,20.5573967 C7.52845137,20.3576524 6.91566443,20.6465683 6.71592014,21.2028561 C5.68381287,24.0770337 5.01367079,27.0597866 4.70891807,30.1081698 L3.8737016,30.1081698 C1.77324775,30.1081698 0.064435367,31.8171249 0.064435367,33.9175787 C0.064435367,36.0180326 1.77339042,37.726845 3.87384428,37.726845 Z M3.87384428,32.2482872 L4.5544016,32.2482872 C4.53043229,32.8030056 4.5180196,33.3594361 4.5180196,33.9174361 C4.5180196,34.177817 4.52130112,34.4377699 4.52658007,34.6975802 C4.52800682,34.7647799 4.53028961,34.8318369 4.5320017,34.8990366 C4.53699531,35.0966407 4.54327299,35.2939595 4.55140544,35.4911357 C4.55268951,35.5229521 4.55311753,35.5549112 4.55454427,35.5867276 L3.87384428,35.5867276 C2.95345114,35.5867276 2.20469541,34.8379719 2.20469541,33.9174361 C2.20469541,32.9970429 2.95345114,32.2482872 3.87384428,32.2482872 Z" id="Shape"></path>
                </g>
            </g>
        </g>
    </g>
</svg>