<?xml version="1.0" encoding="utf-8"?>
<!-- Generator: Adobe Illustrator 19.0.0, SVG Export Plug-In . SVG Version: 6.00 Build 0)  -->
<svg version="1.1" id="Layer_1" xmlns="http://www.w3.org/2000/svg" xmlns:xlink="http://www.w3.org/1999/xlink" x="0px" y="0px"
	 viewBox="0 0 50 50" style="enable-background:new 0 0 50 50;" xml:space="preserve">
<g id="XMLID_242_">
	<path id="XMLID_249_" style="fill:#FFFFFF;" d="M21.403,8.1L21.403,8.1L4.281,25.519c2.482-2.482,5.68-3.809,8.929-3.987
		l9.64-9.938C24.139,10.305,23.226,8.1,21.403,8.1z"/>
	<path id="XMLID_248_" style="fill:#FFFFFF;" d="M20.18,23.005L36.343,6.841c1.29-1.29,0.376-3.495-1.448-3.495h0L16.495,21.748
		C17.765,21.986,19.006,22.406,20.18,23.005z"/>
	<path id="XMLID_247_" style="fill:#FFFFFF;" d="M23.612,44.9l0.025-0.025C23.629,44.884,23.62,44.891,23.612,44.9L23.612,44.9z"/>
	<polygon id="XMLID_246_" style="fill:#FFFFFF;" points="4.281,25.519 4.281,25.519 4.281,25.519 	"/>
	<path id="XMLID_245_" style="fill:#FFFFFF;" d="M23.637,44.875l17.691-17.691v0c0-1.824-2.205-2.737-3.494-1.448l-10.21,10.21
		C27.447,39.196,26.119,42.393,23.637,44.875z"/>
	<path id="XMLID_244_" style="fill:#FFFFFF;" d="M35.598,11.385L22.32,24.365c0.457,0.353,0.898,0.735,1.317,1.154
		s0.801,0.86,1.154,1.317l13.278-12.98v0C38.069,12.491,36.963,11.385,35.598,11.385L35.598,11.385z"/>
	<path id="XMLID_243_" style="fill:#FFFFFF;" d="M27.409,32.661L49.68,10.39v0c0-1.824-2.205-2.737-3.495-1.448L26.151,28.976
		C26.751,30.15,27.171,31.392,27.409,32.661z"/>
</g>
<g id="XMLID_237_">
	<path id="XMLID_78_" style="fill:#FFFFFF;" d="M14.007,24.737c2.781,0,5.396,1.083,7.363,3.05c1.967,1.967,3.05,4.581,3.05,7.363
		c0,2.781-1.083,5.396-3.05,7.363c-1.967,1.967-4.581,3.05-7.363,3.05c-2.781,0-5.396-1.083-7.363-3.05
		c-1.967-1.967-3.05-4.581-3.05-7.363c0-2.781,1.083-5.396,3.05-7.363S11.226,24.737,14.007,24.737 M14.007,21.462
		c-3.503,0-7.006,1.336-9.678,4.009c-5.345,5.345-5.345,14.011,0,19.356c2.673,2.673,6.175,4.009,9.678,4.009
		s7.006-1.336,9.678-4.009c5.345-5.345,5.345-14.011,0-19.356C21.013,22.798,17.51,21.462,14.007,21.462L14.007,21.462z"/>
</g>
</svg>
