<?xml version="1.0" encoding="iso-8859-1"?>
<!-- Generator: Adobe Illustrator 19.0.0, SVG Export Plug-In . SVG Version: 6.00 Build 0)  -->
<svg version="1.1" id="Layer_1" xmlns="http://www.w3.org/2000/svg" xmlns:xlink="http://www.w3.org/1999/xlink" x="0px" y="0px"
	 viewBox="0 0 496 496" style="enable-background:new 0 0 496 496;" xml:space="preserve">
<path style="fill:#5B402E;" d="M0,232v167.2C0,460.8,52,456,113.6,456h268c61.6,0,113.6,4.8,113.6-56.8V232H0z"/>
<path style="fill:#493322;" d="M112,456h270.4c61.6,0,113.6,4.8,113.6-56.8V232"/>
<path style="fill:#5B402E;" d="M496,192v-40c0-61.6-52-112-113.6-112H113.6C52,40,0,90.4,0,152v40H496z"/>
<path style="fill:#493322;" d="M0,152v40h496v-40c0-61.6-52-112-113.6-112"/>
<rect y="232" style="fill:#F2B111;" width="496" height="64"/>
<polyline style="fill:#E88813;" points="0,296 496,296 496,232 "/>
<rect y="152" style="fill:#F2B111;" width="496" height="40"/>
<g>
	<polyline style="fill:#E88813;" points="0,192 496,192 496,152 	"/>
	<rect x="104" y="32" style="fill:#E88813;" width="56" height="152"/>
	<rect x="336" y="32" style="fill:#E88813;" width="56" height="152"/>
	<rect x="104" y="288" style="fill:#E88813;" width="56" height="176"/>
	<rect x="336" y="288" style="fill:#E88813;" width="56" height="176"/>
</g>
<g>
	<circle style="fill:#493322;" cx="184" cy="264.8" r="8.8"/>
	<circle style="fill:#493322;" cx="226.4" cy="264.8" r="8.8"/>
	<circle style="fill:#493322;" cx="269.6" cy="264.8" r="8.8"/>
	<circle style="fill:#493322;" cx="312" cy="264.8" r="8.8"/>
	<circle style="fill:#493322;" cx="33.6" cy="264.8" r="8.8"/>
	<circle style="fill:#493322;" cx="75.2" cy="264.8" r="8.8"/>
	<circle style="fill:#493322;" cx="420" cy="264.8" r="8.8"/>
	<circle style="fill:#493322;" cx="462.4" cy="264.8" r="8.8"/>
</g>
<path style="fill:#F2B111;" d="M276,346.4c0-15.2-12.8-28-28-28s-28,12.8-28,28c0,10.4,5.6,20,13.6,25.6l-8,52h44.8l-8-52
	C270.4,367.2,276,356.8,276,346.4z"/>
<path style="fill:#E88813;" d="M270.4,424l-8-52c8-4.8,13.6-15.2,13.6-25.6c0-15.2-12.8-28-28-28s-28,12.8-28,28"/>
<g>
</g>
<g>
</g>
<g>
</g>
<g>
</g>
<g>
</g>
<g>
</g>
<g>
</g>
<g>
</g>
<g>
</g>
<g>
</g>
<g>
</g>
<g>
</g>
<g>
</g>
<g>
</g>
<g>
</g>
</svg>
