<?xml version="1.0" encoding="UTF-8"?>
<svg width="308px" height="321px" viewBox="0 0 308 321" version="1.1" xmlns="http://www.w3.org/2000/svg" xmlns:xlink="http://www.w3.org/1999/xlink">
    <!-- Generator: Sketch 49.3 (51167) - http://www.bohemiancoding.com/sketch -->
    <title>Chabok-Logo Blue-01 Copy 5-vector</title>
    <desc>Created with Sketch.</desc>
    <defs></defs>
    <g id="Page-1" stroke="none" stroke-width="1" fill="none" fill-rule="evenodd">
        <g id="Artboard-Copy-10" transform="translate(-163.000000, -79.000000)" fill-rule="nonzero">
            <g id="Chabok-Logo-Blue-01-Copy-5" transform="translate(162.000000, 78.366337)">
                <g id="Group" transform="translate(0.877343, 0.000000)">
                    <path d="M163.589197,231.020795 C164.914543,219.900038 159.800804,206.221207 159.789211,206.224103 L175.435262,190.721281 L293.270671,73.9171363 L307.565525,88.3105446 L182.327527,212.463467 L182.317732,212.473173 C183.331474,217.930288 183.919388,223.540735 183.919388,229.29295 C183.919388,234.034751 183.724437,237.450446 183.028541,241.998172 L234.628603,190.721281 L248.41904,203.302305 L159.916791,291.136232 C143.113814,309.532798 118.919846,321.078808 92.0321831,321.078808 C41.2898011,321.078808 0.150777364,279.984165 0.150777364,229.290054 C0.150777364,199.970255 13.9295087,173.880211 35.3543922,157.076798 L117.980387,74.765852 L132.228848,89.2056066 C132.228848,89.2056066 56.8343674,164.747103 44.1371736,176.180144 C29.5929572,189.275857 20.4477302,208.234371 20.4477302,229.287157 C20.4477302,268.722025 52.5662082,300.799426 92.0321831,300.799426 C130.915346,300.799426 162.648181,269.65764 163.576042,231.033831 L163.589197,231.020795 Z M150.568595,188.125891 C145.590042,181.211609 136.647785,173.364609 136.650684,173.361713 L151.110814,159.026237 L236.131849,74.7861285 L250.426703,89.1853301 L165.127309,173.700619 L150.568595,188.125891 Z" id="Combined-Shape" fill="#0D47A1"></path>
                    <polygon id="Rectangle-path" fill="#00B9CD" transform="translate(231.029500, 36.876417) rotate(45.008103) translate(-231.029500, -36.876417) " points="220.301291 -2.76742416 241.757709 -3.37350526 241.757709 76.5202581 220.301291 77.1263392"></polygon>
                    <path d="M117.903139,163.708091 L133.430308,148.268996 L192.091401,89.9132697 L176.37762,73.9258262 L110.514008,139.433359 L92.0698774,157.780682 C101.667437,156.729201 117.903139,163.708091 117.903139,163.708091 Z" id="Shape" fill="#00B9CD"></path>
                </g>
            </g>
        </g>
    </g>
</svg>