<?xml version="1.0" encoding="UTF-8"?>
<svg width="50px" height="46px" viewBox="0 0 50 46" version="1.1" xmlns="http://www.w3.org/2000/svg" xmlns:xlink="http://www.w3.org/1999/xlink">
    <!-- Generator: Sketch 46.1 (44463) - http://www.bohemiancoding.com/sketch -->
    <title>Page 1</title>
    <desc>Created with Sketch.</desc>
    <defs>
        <polygon id="path-1" points="23.8653912 0.0725569464 23.8653912 24.6487775 0.0451360544 24.6487775 0.0451360544 0.0725569464"></polygon>
    </defs>
    <g id="map" stroke="none" stroke-width="1" fill="none" fill-rule="evenodd">
        <g id="Desktop-HD" transform="translate(-1361.000000, -27.000000)">
            <g id="Page-1" transform="translate(1361.000000, 27.000000)">
                <path d="M21.3437755,4.80363911 L21.3437755,4.80363911 L4.0097619,22.4044952 C6.52251701,19.8965616 9.76010204,18.5556871 13.0493027,18.3758458 L22.8086565,8.33409668 C24.1136735,7.03166863 23.1893537,4.80363911 21.3437755,4.80363911" id="Fill-1" fill="#005BFF"></path>
                <path d="M20.1056378,19.8642258 L36.468733,3.53150996 C37.7746854,2.22806347 36.8494303,3.39483395e-05 35.0028316,3.39483395e-05 L16.3750255,18.5941336 C17.6607398,18.8345727 18.9171173,19.2590118 20.1056378,19.8642258" id="Fill-3" fill="#005BFF"></path>
                <path d="M23.6054337,41.9625155 L41.5154677,24.0868476 C41.5154677,22.2437923 39.2831548,21.3212461 37.9782228,22.623759 L27.6418282,32.9403199 C27.4625765,36.2242277 26.1181888,39.4545819 23.6054337,41.9625155" id="Fill-9" fill="#005BFF"></path>
                <path d="M35.7145238,8.12292952 L22.2720918,21.2384461 C22.7347619,21.5950734 23.1812755,21.9810661 23.6054252,22.4044867 C24.0296599,22.8278225 24.4163095,23.2734793 24.7737075,23.7351768 L38.2161395,10.619745 C38.2161395,9.24050886 37.0964116,8.12292952 35.7145238,8.12292952" id="Fill-11" fill="#005BFF"></path>
                <g id="Group-15" transform="translate(26.105442, 4.972244)">
                    <mask id="mask-2" fill="white">
                        <use xlink:href="#path-1"></use>
                    </mask>
                    <g id="Clip-14"></g>
                    <path d="M1.31869048,24.6487775 L23.8654592,2.14527196 C23.8654592,0.302301476 21.6331463,-0.620244649 20.3271939,0.682183395 L0.0451360544,20.9253236 C0.652534014,22.1115635 1.07770408,23.3665487 1.31869048,24.6487775" id="Fill-13" fill="#005BFF" mask="url(#mask-2)"></path>
                </g>
                <g id="Group-18" transform="translate(0.000000, 18.296967)" fill="#005BFF">
                    <path d="M13.8562075,0.00815608856 C10.3098639,0.00815608856 6.76343537,1.35811181 4.05841837,4.0590417 C-1.35280612,9.45979815 -1.35280612,18.2162631 4.05841837,23.6170196 C6.76445578,26.3179494 10.3098639,27.6679052 13.8562075,27.6679052 C17.402551,27.6679052 20.9489796,26.3179494 23.6539966,23.6170196 C29.0652211,18.2162631 29.0652211,9.45979815 23.6539966,4.0590417 C20.9489796,1.35811181 17.402551,0.00815608856 13.8562075,0.00815608856 M13.8562075,3.31735535 C16.6715986,3.31735535 19.3190476,4.41168007 21.3103741,6.39918561 C23.3017007,8.38669114 24.3981293,11.0279568 24.3981293,13.8390491 C24.3981293,16.649038 23.3017007,19.2913221 21.3103741,21.2789125 C19.3190476,23.2664181 16.672619,24.3607428 13.8562075,24.3607428 C11.0408163,24.3607428 8.39336735,23.2664181 6.40204082,21.2789125 C4.41071429,19.2913221 3.31428571,16.6500565 3.31428571,13.8390491 C3.31428571,11.0289753 4.41071429,8.38669114 6.40204082,6.39918561 C8.39336735,4.41168007 11.0408163,3.31735535 13.8562075,3.31735535" id="Fill-16"></path>
                </g>
            </g>
        </g>
    </g>
</svg>