<?xml version="1.0" encoding="UTF-8"?>
<svg width="405px" height="187px" viewBox="0 0 405 187" version="1.1" xmlns="http://www.w3.org/2000/svg" xmlns:xlink="http://www.w3.org/1999/xlink">
    <!-- Generator: Sketch 49.3 (51167) - http://www.bohemiancoding.com/sketch -->
    <title>Group 2-vector</title>
    <desc>Created with Sketch.</desc>
    <defs></defs>
    <g id="Page-1" stroke="none" stroke-width="1" fill="none" fill-rule="evenodd">
        <g id="Artboard-Copy-11" transform="translate(-364.000000, -135.000000)" fill-rule="nonzero">
            <g id="Group-4" transform="translate(319.000000, 126.000000)">
                <g id="Group-2" transform="translate(45.000000, 9.000000)">
                    <g id="Chabok-Logo-Blue-01-Copy-5" transform="translate(243.000000, 0.000000)">
                        <g id="Group" transform="translate(0.459219, 0.000000)">
                            <path d="M85.6259742,120.807472 C86.3196878,114.992106 83.643051,107.839048 83.6369826,107.840563 L91.8264498,99.7336876 L153.503944,38.6534137 L160.986166,46.1801442 L95.4340042,111.103307 L95.4288775,111.108383 C95.9594907,113.962066 96.2672172,116.895932 96.2672172,119.903932 C96.2672172,122.383557 96.1651756,124.169723 95.8009295,126.547861 L122.809471,99.7336876 L130.027671,106.31267 L83.7037611,152.243577 C74.9087347,161.863675 62.2451108,167.901418 48.1715509,167.901418 C21.6119372,167.901418 0.0789199952,146.411838 0.0789199952,119.902417 C0.0789199952,104.570244 7.2909934,90.9270039 18.5052212,82.1400119 L61.7533786,39.0972318 L69.2113181,46.6481981 C69.2113181,46.6481981 29.7482851,86.1510367 23.1023109,92.1297055 C15.4895668,98.9778336 10.7027655,108.89179 10.7027655,119.900902 C10.7027655,140.522538 27.5142422,157.296741 48.1715509,157.296741 C68.5238035,157.296741 85.1334272,141.011799 85.6190887,120.814289 L85.6259742,120.807472 Z M78.8107214,98.3764828 C76.2048438,94.7608045 71.5242811,90.6573807 71.5257987,90.6558659 L79.0945298,83.1594302 L123.596301,39.107835 L131.078524,46.6375949 L86.431054,90.8330902 L78.8107214,98.3764828 Z" id="Combined-Shape" fill="#0D47A1"></path>
                            <polygon id="Rectangle-path" fill="#00B9CD" transform="translate(120.925626, 19.283748) rotate(45.008103) translate(-120.925626, -19.283748) " points="115.310259 -1.44716633 126.540993 -1.76410371 126.540993 40.0146616 115.310259 40.331599"></polygon>
                            <path d="M61.7129453,85.6077076 L69.8401871,77.5341568 L100.544618,47.0182557 L92.3196998,38.6579579 L57.8453211,72.9137459 L48.1912809,82.5080931 C53.2148422,81.9582434 61.7129453,85.6077076 61.7129453,85.6077076 Z" id="Shape" fill="#00B9CD"></path>
                        </g>
                    </g>
                    <g id="Layer_1_1_" transform="translate(0.000000, 80.000000)" fill="#0D47A1">
                        <path d="M117.716298,49.8656474 L117.716298,28.4538198 L127.250625,28.4538198 L127.250625,56.1987751 C127.250625,62.2583849 125.052907,66.1748611 120.34502,68.5282911 C118.310575,69.5348786 115.754596,70.1480464 112.74169,70.3595243 C112.74169,70.3595243 40.2475249,70.3595243 21.6356343,70.3595243 C3.02021988,70.3595243 -0.228785438,53.772672 0.0120121367,35.9033802 L10.7209618,35.9033802 C10.7209618,49.8656474 7.93791326,60.2520872 30.4005841,60.9133001 C52.8632549,61.5745131 83.615209,60.9735536 83.615209,60.9735536 L83.615209,57.6622921 C82.9151341,41.6088747 70.7113546,39.049874 70.7113546,39.049874 C60.5062359,36.3290159 55.6245056,36.8890188 43.5047526,36.8890188 C42.2455574,36.8890188 36.950802,36.8890188 34.3849849,36.9563609 L34.2980629,28.1348308 L66.6624315,0 L73.2678791,5.63991013 C54.4703709,21.1091002 45.0716168,28.8436952 45.0716168,28.8436952 C45.0716168,28.8436952 57.035227,27.422422 69.7411166,29.6423492 C76.4223683,30.8096127 80.5629119,32.9834637 84.8115208,36.9034842 C87.9477624,40.4560767 92.4465659,46.404631 92.6168861,55.8797861 L92.6168861,60.9782794 L103.37181,61.0562545 C117.716298,61.0562545 117.716298,60.9133001 117.716298,49.8656474 Z" id="Shape"></path>
                        <path d="M140.115495,62.1081626 C138.926777,59.6803018 138.222004,56.6688093 138,53.1705631 L138,2 L146.953518,2 L146.955867,43.6522711 C146.955867,56.4728918 147.780143,61.1990295 163.937382,61.1754007 C195.670668,61.1911533 211.537312,61.1990295 211.537312,61.1990295 C211.537312,61.1990295 211.575446,58.2717363 210.316251,55.2200747 C209.214455,51.8565128 206.903973,48.4693221 203.488172,45.2038198 C199.044575,40.789957 192.38018,37.4760156 184.528593,37.4760156 C176.677005,37.4760156 170.632183,40.8029529 165.764548,46.1560611 L159.73991,39.6997753 C160.866373,38.4746212 161.97874,37.3664298 163.079361,36.3704752 C167.18819,32.3181333 173.188161,29.6409885 180.919525,28.4122901 C188.886988,27.6986999 196.458603,29.2263028 203.605005,33.0175463 C222.694967,43.8726242 222.694967,70.589726 222.694967,70.589726 L154.397728,70.589726 C147.375835,70.5838188 142.842968,67.9102183 140.115495,62.1081626 Z" id="Shape"></path>
                        <path d="M170.091021,80.0000004 L170.091021,80.7103477 C170.091021,86.624848 174.885671,91.4194978 180.800171,91.4194978 L180.800171,80.1631793 L170.091021,80.0000004 Z M103,80.0000008 L103,80.7103481 C103,86.6248483 107.79465,91.4194981 113.70915,91.4194981 L113.70915,80.1631796 L103,80.0000008 Z M179.050114,94.9547711 L179.050114,95.6666468 C179.050114,101.582806 183.846109,106.378801 189.762268,106.378801 L189.762268,94.9547711 L179.050114,94.9547711 Z M186.30121,79.8380642 L186.30121,80.5454071 C186.30121,86.4615667 191.097205,91.2575616 197.013365,91.2575616 L197.013365,80.0012431 L186.30121,79.8380642 Z" id="Shape"></path>
                    </g>
                </g>
            </g>
        </g>
    </g>
</svg>